<svg xmlns="http://www.w3.org/2000/svg" viewBox="0 0 35.31 16.31"><defs><style>.cls-1{fill:#f8ce3a;}.cls-2{fill:#fefefe;}</style></defs><title>logo</title><g id="Calque_2" data-name="Calque 2"><g id="Calque_1-2" data-name="Calque 1"><path class="cls-1" d="M19.76,3.72A1.63,1.63,0,0,0,18,3.33c-.15,0-.07.25.06.25a2,2,0,0,1,2,1.84A2.81,2.81,0,0,1,18.49,8a2.4,2.4,0,0,1-2.86-.41,1.74,1.74,0,0,1-.4-2.12,7.81,7.81,0,0,1,.94-1.6l.24-.26a1.06,1.06,0,0,0,.3-.4c0-.05,0-.08-.07-.08-.75.12-1.44,1.23-1.76,1.83a2.72,2.72,0,0,0-.32,2.2,3,3,0,0,0,3.5,1.63,3.49,3.49,0,0,0,2.48-3.17A2.48,2.48,0,0,0,19.76,3.72Z"/><path class="cls-1" d="M15.08,2a1.18,1.18,0,0,0-.56-.54A2.69,2.69,0,0,0,14,1.21c-.34-.1-.68.22-.46.55a1.53,1.53,0,0,0,1.29.73A.34.34,0,0,0,15.08,2Z"/><path class="cls-1" d="M13.17,6.25a1.6,1.6,0,0,0-.78-.08,4.52,4.52,0,0,1-.61.15.39.39,0,0,0-.23.66l.45.18h.1l.24,0A1.66,1.66,0,0,0,12.72,7a1.13,1.13,0,0,0,.54-.58A.2.2,0,0,0,13.17,6.25Z"/><path class="cls-1" d="M13.9,8.49a3.88,3.88,0,0,0-1.22.73c-.22.2-.48.49-.33.79a.1.1,0,0,0,.17,0c.25-.2.56-.33.82-.53a3.88,3.88,0,0,0,.71-.8C14.13,8.61,14,8.43,13.9,8.49Z"/><path class="cls-1" d="M13.94,4a4.35,4.35,0,0,0-1.38-.38c-.29,0-.67,0-.79.31a.11.11,0,0,0,.09.15c.32,0,.63.17,1,.22a3.83,3.83,0,0,0,1.07,0A.14.14,0,0,0,13.94,4Z"/><path class="cls-1" d="M20.81,8.32a.1.1,0,0,0-.11.15,4.13,4.13,0,0,0,.82.9,2.22,2.22,0,0,0,.95.57c.16,0,.38-.11.3-.3A2.93,2.93,0,0,0,20.81,8.32Z"/><path class="cls-1" d="M23.83,6.32a1.85,1.85,0,0,0-1.12-.41,2.56,2.56,0,0,0-1.2,0,.11.11,0,0,0,0,.19,2.49,2.49,0,0,0,1.12.44,2,2,0,0,0,1.18,0A.16.16,0,0,0,23.83,6.32Z"/><path class="cls-1" d="M20.76,1.06V1h0c0-.22-.11-.53-.38-.37a3,3,0,0,0-.69.59,1.78,1.78,0,0,0-.41.81c0,.08.07.13.14.11a1.81,1.81,0,0,0,.72-.39,3,3,0,0,0,.53-.6A.24.24,0,0,0,20.76,1.06Z"/><path class="cls-1" d="M22.85,2.66a3.7,3.7,0,0,0-1.78.83.09.09,0,0,0,.07.17A3.47,3.47,0,0,0,23,3,.21.21,0,0,0,22.85,2.66Z"/><path class="cls-1" d="M17.57,3.32c0-.33,0-1.32,0-1.67A8.48,8.48,0,0,0,17.42.06c0-.09-.18-.08-.2,0A5.92,5.92,0,0,0,17,1.61c0,.29,0,1.22,0,1.49v.48a8.63,8.63,0,0,0,.23,2.7c.06.15.19.15.24-.09A11.44,11.44,0,0,0,17.57,3.32Z"/><path class="cls-2" d="M3.39,12.51A1.92,1.92,0,0,0,2,12c-.71,0-1.39.26-1.37.84s.81.73,1.38.83c.81.14,1.93.27,1.88,1.33S2.79,16.31,2,16.31a2.35,2.35,0,0,1-2-.92l.33-.29A2,2,0,0,0,2,15.87c.55,0,1.39-.15,1.42-.86s-.74-.79-1.48-.91S.18,13.79.17,12.88,1.05,11.6,2,11.6a2.4,2.4,0,0,1,1.7.61Z"/><path class="cls-2" d="M4.1,14A2.26,2.26,0,0,1,6.41,11.6,2.26,2.26,0,0,1,8.72,14a2.23,2.23,0,0,1-2.31,2.34A2.23,2.23,0,0,1,4.1,14Zm4.18,0a1.87,1.87,0,1,0-3.74,0,1.8,1.8,0,0,0,1.87,1.89A1.8,1.8,0,0,0,8.28,14Z"/><path class="cls-2" d="M9.53,9.78v6.45H9.08V9.78Z"/><path class="cls-2" d="M14.5,11.68v4.55h-.45v-1a2.13,2.13,0,0,1-1.86,1A2.28,2.28,0,0,1,9.88,14a2.26,2.26,0,0,1,2.31-2.34,2.06,2.06,0,0,1,1.86,1.05v-1ZM10.33,14a1.82,1.82,0,0,0,1.86,1.9,1.9,1.9,0,1,0,0-3.8A1.82,1.82,0,0,0,10.33,14Z"/><path class="cls-2" d="M15.28,11.68l0,.81a1.59,1.59,0,0,1,1.51-.86,1.78,1.78,0,0,1,1,.27l-.2.37a1.42,1.42,0,0,0-.77-.21,1.51,1.51,0,0,0-1.5,1.52v2.65h-.46V11.68Z"/><path class="cls-1" d="M28,12.06a1.31,1.31,0,0,0-1.42-.22c-.12.05-.05.21.06.2a1.55,1.55,0,0,1,1.64,1.35,2.22,2.22,0,0,1-1.07,2.07,1.9,1.9,0,0,1-2.26-.19,1.37,1.37,0,0,1-.42-1.64,5.93,5.93,0,0,1,.67-1.3l.17-.22a.75.75,0,0,0,.21-.32s0-.06-.06-.06c-.58.13-1.06,1-1.28,1.52A2.07,2.07,0,0,0,24.06,15a2.34,2.34,0,0,0,2.82,1.12,2.76,2.76,0,0,0,1.79-2.61A1.94,1.94,0,0,0,28,12.06Z"/><path class="cls-1" d="M22.36,12.94a1.26,1.26,0,0,0-.23-.75.42.42,0,0,0-.36-.17,1,1,0,0,0-.55.22,2.38,2.38,0,0,0-.6.62,4.05,4.05,0,0,0-.35.78,3.15,3.15,0,0,0-.16.89,1.23,1.23,0,0,0,1.78,1.24l.21-.12.2-.12.19-.17.18-.14.19-.18.16-.17.18-.18.16-.17a.2.2,0,0,1,.14-.06.28.28,0,0,1,.18,0,.15.15,0,0,1,.09.1.13.13,0,0,1,0,.12l-.15.17-.18.18-.18.17-.18.18-.2.17-.23.18-.22.15-.26.14a1.8,1.8,0,0,1-1.35.11,1.5,1.5,0,0,1-1.14-1.62,3.38,3.38,0,0,1,.18-1,3.2,3.2,0,0,1,.38-.83,2.6,2.6,0,0,1,.71-.76,1.48,1.48,0,0,1,.84-.28.91.91,0,0,1,.77.33,1.53,1.53,0,0,1,.29.9.17.17,0,0,1-.06.12.3.3,0,0,1-.16,0,.31.31,0,0,1-.17,0A.12.12,0,0,1,22.36,12.94Z"/><path class="cls-1" d="M31.68,14.13a6.49,6.49,0,0,0-.14-1.06,1.9,1.9,0,0,0-.27-.65A.43.43,0,0,0,31,12.2a.75.75,0,0,0-.69.41,3.51,3.51,0,0,0-.41,1.18,7.19,7.19,0,0,0-.1,1.61v.08a.31.31,0,0,1,0,.1v.08h0v0c0,.07-.08.11-.19.12s-.21,0-.25-.1v0h0v0a1.79,1.79,0,0,0,0-.23c0-.17,0-.17,0-.24v-.26a1.79,1.79,0,0,0,0-.35,13.53,13.53,0,0,1-.07-2.21.15.15,0,0,1,.07-.12.33.33,0,0,1,.17,0,.28.28,0,0,1,.16.05.14.14,0,0,1,.06.11c0,.33,0,.35,0,.51a2.69,2.69,0,0,1,.19-.38A1.27,1.27,0,0,1,31,11.87a.88.88,0,0,1,.7.41,2.29,2.29,0,0,1,.28.66,2,2,0,0,1,1.38-1.09,2.65,2.65,0,0,1,.4-.06,1.59,1.59,0,0,1,.46,0,1.39,1.39,0,0,1,.84.79,3.56,3.56,0,0,1,.24,1.22,9.37,9.37,0,0,1,0,1.29c0,.11,0,.28-.05.5s0,.38,0,.46a.12.12,0,0,1-.07.11.3.3,0,0,1-.16.05.25.25,0,0,1-.16-.05.15.15,0,0,1-.07-.12c0-.08,0-.23,0-.46s0-.39,0-.51a8.8,8.8,0,0,0,0-1.25,3.25,3.25,0,0,0-.23-1.15.92.92,0,0,0-.57-.57.41.41,0,0,0-.23,0,1.15,1.15,0,0,0-.3,0,1.73,1.73,0,0,0-1.29,1.45,3.8,3.8,0,0,0-.07.53v.21c0,.14,0,.43,0,.88v0c0,.13,0,.23,0,.32v.06l0,0h0s0,0,0,0l-.06.06a.33.33,0,0,1-.17,0,.24.24,0,0,1-.14,0,.09.09,0,0,1-.06-.06v0h0l0,0s0-.15,0-.34C31.65,14.67,31.66,14.3,31.68,14.13Z"/></g></g></svg>