<svg xmlns="http://www.w3.org/2000/svg" viewBox="0 0 76.11 76.11"><defs><style>.cls-1{fill:#edc345;}.cls-2{fill:#142b5a;}</style></defs><title>cal</title><g id="Calque_2" data-name="Calque 2"><g id="Calque_1-2" data-name="Calque 1"><circle class="cls-1" cx="38.05" cy="38.05" r="38.05"/><path class="cls-2" d="M50.19,22.19a2,2,0,0,1-1.95,2h0a2,2,0,0,1-2-2V13.77a2,2,0,0,1,2-2h0a2,2,0,0,1,1.95,2Z"/><path class="cls-2" d="M32.33,22.19a2,2,0,0,1-2,2h0a2,2,0,0,1-1.95-2V13.77a2,2,0,0,1,1.95-2h0a2,2,0,0,1,2,2Z"/><rect class="cls-2" x="33.1" y="33.83" width="5.14" height="5.14"/><rect class="cls-2" x="40.36" y="33.83" width="5.14" height="5.14"/><rect class="cls-2" x="47.62" y="33.83" width="5.14" height="5.14"/><rect class="cls-2" x="25.85" y="41.04" width="5.14" height="5.14"/><rect class="cls-2" x="33.1" y="41.04" width="5.14" height="5.14"/><rect class="cls-2" x="40.36" y="41.04" width="5.14" height="5.14"/><rect class="cls-2" x="25.85" y="48.25" width="5.14" height="5.14"/><rect class="cls-2" x="33.1" y="48.25" width="5.14" height="5.14"/><path class="cls-2" d="M40.36,48.25V53.4h2.58a11.14,11.14,0,0,1,1.26-5.15Z"/><path class="cls-2" d="M52.76,42.36V41H47.62v3.29A11.13,11.13,0,0,1,52.76,42.36Z"/><path class="cls-2" d="M43.23,55.93H24.08a2.14,2.14,0,0,1-2.14-2.14V31.3H56.67V42.59a11,11,0,0,1,3.21,1.34V20.51A2.53,2.53,0,0,0,57.35,18H51.2v4.21a3,3,0,1,1-5.93,0V18H33.34v4.21a3,3,0,1,1-5.93,0V18H21.26a2.54,2.54,0,0,0-2.54,2.53v36.1a2.54,2.54,0,0,0,2.54,2.53H44.54A10.9,10.9,0,0,1,43.23,55.93Z"/><path class="cls-2" d="M54.06,43.36a10,10,0,1,0,10,10A10,10,0,0,0,54.06,43.36Zm0,17.86a7.83,7.83,0,1,1,7.82-7.82A7.82,7.82,0,0,1,54.06,61.22Z"/><path class="cls-2" d="M59.22,50.69,58,49.5a1,1,0,0,0-1.43,0L53,53.08l-1.51-1.51a1,1,0,0,0-1.43,0l-1.2,1.2a1,1,0,0,0,0,1.43l3.38,3.38a1,1,0,0,0,.75.29,1,1,0,0,0,.76-.29l5.45-5.46A1,1,0,0,0,59.22,50.69Z"/></g></g></svg>