<svg xmlns="http://www.w3.org/2000/svg" viewBox="0 0 76.11 76.11"><defs><style>.cls-1{fill:#edc345;}.cls-2{fill:#142b5a;}</style></defs><title>oeil</title><g id="Calque_2" data-name="Calque 2"><g id="Calque_1-2" data-name="Calque 1"><circle class="cls-1" cx="38.05" cy="38.05" r="38.05"/><path class="cls-2" d="M67.77,39.36c-8.32-8.94-18.64-14.54-29.5-15h0l-.72,0h-.21c-13.84.49-23,8.46-29.18,15.07a1.16,1.16,0,0,0-.3.82,1.14,1.14,0,0,0,.36.79c5.85,5.44,12.2,11.3,22.68,13.44a39,39,0,0,0,6.14.77h0a14.12,14.12,0,0,0,1.91,0h0A45.26,45.26,0,0,0,45,54.42c10.5-2.14,16.85-8,22.7-13.45a1.11,1.11,0,0,0,.35-.79A1.16,1.16,0,0,0,67.77,39.36Zm-53.55.92c3.2-3.39,6.72-7.19,12.43-9.57a14.58,14.58,0,0,0,.8,18.89C21.53,47.42,18,43.77,14.22,40.28ZM38,50.58H37.9A10.92,10.92,0,0,1,27.19,39.77a10.77,10.77,0,0,1,10.71-11H38a10.82,10.82,0,0,1,10.8,10.88A11,11,0,0,1,38,50.58Zm10.76-1.22a14.48,14.48,0,0,0,1.11-17.93c4.55,2,7.79,5.07,11.4,8.88C57.6,43.66,54.3,47.15,48.71,49.36Z"/><path class="cls-2" d="M38,32.92a6.93,6.93,0,0,0-2.24.38,3.41,3.41,0,1,1-4.2,4.2,6.93,6.93,0,0,0-.38,2.24A6.82,6.82,0,1,0,38,32.92Z"/></g></g></svg>