<svg xmlns="http://www.w3.org/2000/svg" viewBox="0 0 122.81 122.81"><defs><style>.cls-1{fill:#f8ce3a;}.cls-2{fill:#142b5a;}</style></defs><title>france</title><g id="Calque_2" data-name="Calque 2"><g id="Calque_1-2" data-name="Calque 1"><circle class="cls-1" cx="61.4" cy="61.4" r="61.4"/><path class="cls-2" d="M95.13,53.31s-8,4.08-8.84,12.26c0,0,2.38-2.84,4.81-2.9,0,0-2,16.48,6.16,21.25,0,0,1.84,6.36-7.33,9.53a7.58,7.58,0,0,1-2.46.39C83,93.84,78,90.5,73.89,90.5c-3.07,0-5.63,1.89-7.09,8.51,0,0-.41,0-1.14,0-2.86,0-10.6-.28-17-3-9.36-4-15-4.44-15-4.44s4.25-8.2,6.13-21.31c2-14.19-5.61-21.27-17.22-21.33a14.54,14.54,0,0,0-2.19-8.54s6.49,0,10.09-1.58a23.46,23.46,0,0,0,6.47,1.39c1.5,0,2.69-.43,2.72-1.76.15-5.31-2.84-7.66-2.84-7.66a17.87,17.87,0,0,1,4.85-.88h.48a6.42,6.42,0,0,0,5.62,3.35,10.3,10.3,0,0,0,4.68-1.3c7.43-3.84,7.36-10.59,7.36-10.59s3.46-1.49,5.35-1.49h.16s3.13,11.68,33.34,18.71C98.65,38.58,94.58,48,95.13,53.31Z"/></g></g></svg>