<svg xmlns="http://www.w3.org/2000/svg" viewBox="0 0 122.81 124.34"><defs><style>.cls-1{fill:#f8ce3a;}.cls-2{fill:#142b5a;}</style></defs><title>prise</title><g id="Calque_2" data-name="Calque 2"><g id="Calque_1-2" data-name="Calque 1"><circle class="cls-1" cx="61.4" cy="61.4" r="61.4"/><path class="cls-2" d="M31.5,51v.21C31.5,53.41,34,55,36.21,55H82.88c2.26,0,4.74-1.54,4.74-3.79V51a5.35,5.35,0,0,0-4.74-4.8H77.31V27.52c0-2.1-1.08-3.81-3.19-3.81s-3.18,1.71-3.18,3.81V46.15H49.7V27.52c0-2.1-1.23-3.81-3.33-3.81S43,25.42,43,27.52V46.15H36.21A5.33,5.33,0,0,0,31.5,51ZM81,59.8H39.09v9.29a20.74,20.74,0,0,0,17,20.16v1.93c0,18.69,15.47,33.05,34.58,33.16V116c-14.25-.11-26.39-10.5-26.39-24.85V89.12A20.15,20.15,0,0,0,81,69.09Z"/></g></g></svg>