<svg xmlns="http://www.w3.org/2000/svg" viewBox="0 0 122.81 122.81"><defs><style>.cls-1{fill:#f8ce3a;}.cls-2{fill:#142b5a;}</style></defs><title>soleil</title><g id="Calque_2" data-name="Calque 2"><g id="Calque_1-2" data-name="Calque 1"><circle class="cls-1" cx="61.4" cy="61.4" r="61.4"/><path class="cls-2" d="M61.88,39.55h-.06a21.27,21.27,0,0,0,0,42.54h.06a21.27,21.27,0,0,0,0-42.54Z"/><rect class="cls-2" x="58.24" y="12.16" width="7.27" height="21.4"/><rect class="cls-2" x="58.24" y="88.08" width="7.27" height="21.4"/><rect class="cls-2" x="89.14" y="57.19" width="21.4" height="7.27"/><rect class="cls-2" x="13.22" y="57.19" width="21.4" height="7.27"/><rect class="cls-2" x="78.02" y="30.34" width="21.4" height="7.27" transform="translate(1.96 72.69) rotate(-45)"/><rect class="cls-2" x="24.33" y="84.03" width="21.4" height="7.27" transform="translate(-51.72 50.45) rotate(-45)"/><rect class="cls-2" x="85.08" y="76.96" width="7.27" height="21.4" transform="translate(-36 88.41) rotate(-45)"/><rect class="cls-2" x="31.4" y="23.28" width="7.27" height="21.4" transform="translate(-13.76 34.73) rotate(-45)"/></g></g></svg>