<svg xmlns="http://www.w3.org/2000/svg" viewBox="0 0 122.81 122.81"><defs><style>.cls-1{fill:#f8ce3a;}.cls-2{fill:#142b5a;}</style></defs><title>wifi</title><g id="Calque_2" data-name="Calque 2"><g id="Calque_1-2" data-name="Calque 1"><circle class="cls-1" cx="61.4" cy="61.4" r="61.4"/><path class="cls-2" d="M91.23,57H85.34a30.41,30.41,0,0,0-47.79,0H31.66A14.79,14.79,0,0,0,16.88,71.77v9.76A14.79,14.79,0,0,0,31.66,96.32H38.4a30.41,30.41,0,0,0,46.09,0h6.74A14.79,14.79,0,0,0,106,81.53V71.77A14.79,14.79,0,0,0,91.23,57ZM43.5,86.05h-5L36.26,73.93,34.1,86.05h-5L24.4,66.38h5.65l1.64,11.5,2.16-11.5h5l2.1,11.5,1.7-11.55h5.54Zm12.12-.11H50.54V71.72h5.08ZM53.13,70.28a2.57,2.57,0,1,1,2.95-2.54A2.76,2.76,0,0,1,53.13,70.28Zm49.68,11.56c0,10.16-11.23,11.54-11.23,11.54l-34.47,0c6.68-5.85,6.16-12,6.16-12v-9c0-11.91,12-12.33,12-12.33H91.1c10.37,0,11.71,11.61,11.71,11.61Z"/><rect class="cls-2" x="90.18" y="71.72" width="5.08" height="14.22"/><ellipse class="cls-2" cx="92.77" cy="67.74" rx="2.95" ry="2.54"/><polygon class="cls-2" points="70.15 66.38 87.04 66.38 87.04 71 75.59 71 75.59 75.37 85.91 75.37 85.91 79.94 75.59 79.94 75.59 85.89 70.15 85.89 70.15 66.38"/><path class="cls-2" d="M105.41,58h-1.22v-.44h3V58h-1.23v3.59h-.53Z"/><path class="cls-2" d="M111,59.84c0-.56-.06-1.24-.06-1.74h0c-.13.47-.3,1-.5,1.53l-.72,2h-.39l-.65-1.92c-.19-.57-.35-1.09-.47-1.57h0c0,.5,0,1.18-.08,1.78l-.1,1.73h-.5l.28-4h.66l.69,2c.17.5.31.94.41,1.36h0c.1-.41.24-.85.42-1.36l.72-2h.66l.25,4h-.51Z"/><path class="cls-2" d="M79,39.78a3.66,3.66,0,0,1-2.57,1.06,3.62,3.62,0,0,1-2.56-1.06,18.25,18.25,0,0,0-25.75,0,3.62,3.62,0,1,1-5.13-5.12,25.48,25.48,0,0,1,36,0A3.64,3.64,0,0,1,79,39.78Z"/><path class="cls-2" d="M87,27.71a3.63,3.63,0,0,1-5.13,0,31,31,0,0,0-43.85,0,3.62,3.62,0,0,1-2.57,1.06,3.58,3.58,0,0,1-2.56-1.06,3.62,3.62,0,0,1,0-5.13,38.3,38.3,0,0,1,54.11,0A3.62,3.62,0,0,1,87,27.71Z"/></g></g></svg>